# xmcd
#
# Track frame offsets:
#	150
#	21900
#	41590
#	60675
#	85237
#	101850
#	124325
#	160027
#	180165
#	194835
#	212750
#
# Disc length: 3070 seconds
#
# Revision: 2
# Processed by: cddbd v1.4PL0 Copyright (c) Steve Scherf et al.
# Submitted via: MusicWizard 6.0.2
#
DISCID=980bfc0b
DTITLE=Air Supply - The Book Of Love
DYEAR=1997
DGENRE=Rock - Pop
TTITLE0=The Book Of Love
TTITLE1=Strong, Strong Wind
TTITLE2=So Much Love
TTITLE3=When I Say
TTITLE4=We The People
TTITLE5=Once
TTITLE6=Let's Stay Together Tonight
TTITLE7=Daybreak
TTITLE8=Mother Said
TTITLE9=Would You Ever Walk Away
TTITLE10=All That You Want
EXTD=
EXTT0=
EXTT1=
EXTT2=
EXTT3=
EXTT4=
EXTT5=
EXTT6=
EXTT7=
EXTT8=
EXTT9=
EXTT10=
PLAYORDER=
